<?xml version="1.0" encoding="UTF-8"?>
<svg id="Layer_1" xmlns="http://www.w3.org/2000/svg" xmlns:xlink="http://www.w3.org/1999/xlink" version="1.1" viewBox="0 0 698.96 190.31">
  <!-- Generator: Adobe Illustrator 29.1.0, SVG Export Plug-In . SVG Version: 2.1.0 Build 142)  -->
  <defs>
    <style>
      .st0 {
        fill: url(#linear-gradient);
      }

      .st1 {
        fill: #20446d;
      }
    </style>
    <linearGradient id="linear-gradient" x1="0" y1="95.16" x2="190.31" y2="95.16" gradientUnits="userSpaceOnUse">
      <stop offset=".18" stop-color="#061c33"/>
      <stop offset="1" stop-color="#338dd5"/>
    </linearGradient>
  </defs>
  <g>
    <path class="st1" d="M257.81,117.33l-30.34-39.58h12.85l22.88,29.56,22.84-29.56h12.84l-30.33,39.58v29.88h-10.74v-29.88Z"/>
    <path class="st1" d="M324.6,113.87v-36.12h10.8v36.12c0,15.57,6.67,24.25,21.35,24.25s21.34-8.68,21.34-24.19v-36.18h10.92v36.18c0,21.21-11.01,34.17-32.27,34.17s-32.15-12.85-32.15-34.23Z"/>
    <path class="st1" d="M421.29,112.6c0-20.08,15.81-36.1,37.06-36.1,11.89,0,22.03,4.81,28.84,12.44l-8.23,6.5c-4.91-5.51-12.2-8.86-20.64-8.86-14.98,0-26.36,11.23-26.36,26.01s11.52,25.94,26.5,25.94c7.81,0,15.79-3.47,21.03-9.76v-16.52h10.75v20c-7.03,9.62-18.62,16.33-31.76,16.33-21.26,0-37.21-15.95-37.21-35.96Z"/>
    <path class="st1" d="M553.83,74.98l39.05,72.35h-11.56l-8.06-15.28h-39.14l-8.15,15.28h-11.8l39.66-72.35ZM568.48,123.09l-14.76-27.93-14.82,27.93h29.59Z"/>
    <path class="st1" d="M630.68,97.82v49.45h-10.69v-69.51h10.72l27.84,51.61,28.17-51.61h10.45v69.51h-10.69v-49.34l-27.8,51.09-27.98-51.21Z"/>
  </g>
  <g>
    <path class="st1" d="M227.47,53.34l1.42-2.05c1.82,1.09,4.14,1.7,6.31,1.69,2.38-.02,3.98-.92,4.02-2.47.03-1.43-.92-1.96-3.42-2.53l-2.25-.51c-3.64-.83-5.32-2.34-5.34-4.85-.02-2.76,2.77-4.65,6.52-4.67,2.47-.01,4.88.73,6.64,1.82l-1.33,2.04c-1.5-.92-3.22-1.5-5.06-1.49-2.34.02-3.97.85-3.95,2.37.01,1.31,1.06,1.97,3.3,2.47l2.4.54c3.62.81,5.2,2.2,5.21,4.79.01,2.89-2.78,4.85-6.84,4.86-2.77,0-5.63-.77-7.61-2.02Z"/>
    <path class="st1" d="M260.05,38.14h13.31v2.39h-10.69v4.35h7.77v2.34h-7.77v5.53h10.71v2.4h-13.33v-17.01Z"/>
    <path class="st1" d="M289.63,46.65c0-4.93,3.92-8.79,9.06-8.79,2.76,0,5.24,1.11,6.99,3.02l-2.02,1.59c-1.3-1.39-3.05-2.14-4.98-2.14-3.61,0-6.44,2.68-6.44,6.32s2.83,6.34,6.44,6.34c2,0,3.73-.76,5.05-2.18l2.04,1.55c-1.8,1.97-4.24,3.09-7.08,3.09-5.15,0-9.06-3.84-9.06-8.79Z"/>
    <path class="st1" d="M323.22,46.98v-8.84h2.64v8.84c0,3.81,1.63,5.93,5.22,5.93s5.22-2.12,5.22-5.92v-8.85h2.67v8.85c0,5.19-2.69,8.36-7.89,8.36s-7.87-3.15-7.87-8.38Z"/>
    <path class="st1" d="M368.72,55.15l-8.13-7.51v7.51h-2.63v-17.01h7.98c3.71,0,6.2,1.82,6.2,5.12s-2.28,5.04-6,5.04h-1.42l7.77,6.85h-3.77ZM360.59,46.02h5.55c1.96,0,3.31-.87,3.31-2.76s-1.35-2.76-3.31-2.76h-5.55v5.51Z"/>
    <path class="st1" d="M390.54,38.14h13.31v2.39h-10.69v4.35h7.77v2.34h-7.77v5.53h10.71v2.4h-13.33v-17.01Z"/>
    <path class="st1" d="M443.42,38.14h8.03c3.56,0,5.54,1.49,5.54,4.27,0,1.97-1.12,3.1-2.41,3.52,1.67.38,3.26,1.72,3.26,4.48,0,3.17-1.93,4.74-5.56,4.74h-8.86v-17.01ZM451.46,44.89c1.82,0,2.94-.8,2.94-2.17,0-1.5-1.03-2.19-3.02-2.19h-5.41v4.36h5.5ZM452.2,52.75c2,0,3.07-.9,3.08-2.75.01-1.76-1.12-2.78-3.25-2.78h-6.06v5.53h6.23Z"/>
    <path class="st1" d="M480.63,47.83l-7.42-9.68h3.14l5.6,7.23,5.59-7.23h3.14l-7.42,9.68v7.31h-2.63v-7.31Z"/>
    <path class="st1" d="M528.64,38.14l5.78-.02c6.16-.02,9.78,3.67,9.78,8.55s-3.63,8.48-9.78,8.48h-5.78v-17.01ZM534.42,52.76c4.87-.01,7.16-2.51,7.16-6.08s-2.29-6.14-7.16-6.17h-3.16s0,12.25,0,12.25h3.16Z"/>
    <path class="st1" d="M562.5,38.14h13.31v2.39h-10.69v4.35h7.77v2.34h-7.77v5.53h10.71v2.4h-13.33v-17.01Z"/>
    <path class="st1" d="M592.5,53.34l1.42-2.05c1.82,1.09,4.14,1.7,6.31,1.69,2.38-.02,3.98-.92,4.02-2.47.03-1.43-.92-1.96-3.42-2.53l-2.25-.51c-3.64-.83-5.32-2.34-5.34-4.85-.02-2.76,2.77-4.65,6.52-4.67,2.47-.01,4.88.73,6.64,1.82l-1.33,2.04c-1.5-.92-3.22-1.5-5.06-1.49-2.34.02-3.97.85-3.95,2.37.01,1.31,1.06,1.97,3.3,2.47l2.4.54c3.62.81,5.2,2.2,5.22,4.79.01,2.89-2.78,4.85-6.84,4.86-2.77,0-5.63-.77-7.61-2.02Z"/>
    <path class="st1" d="M625.08,38.14h2.63v17.01h-2.63v-17.01Z"/>
    <path class="st1" d="M646.03,46.67c0-4.91,3.87-8.83,9.07-8.83,2.91,0,5.39,1.18,7.06,3.04l-2.01,1.59c-1.2-1.35-2.99-2.17-5.05-2.17-3.67,0-6.45,2.75-6.45,6.36s2.82,6.35,6.48,6.35c1.91,0,3.86-.85,5.15-2.39v-4.04h2.63v4.89c-1.72,2.35-4.56,4-7.77,4-5.2,0-9.1-3.9-9.1-8.8Z"/>
    <path class="st1" d="M681.42,38.15h2.62l10.49,13.22v-13.22h2.62v17.01h-2.61l-10.49-13.19v13.19h-2.63v-17.01Z"/>
  </g>
  <path class="st0" d="M95.72,175.81c.37-7.63,6.85-13.52,14.48-13.16,7.63.37,13.52,6.85,13.16,14.48-.37,7.63-6.85,13.52-14.48,13.16-7.63-.37-13.52-6.85-13.16-14.48ZM186.61,123.65c1.95.09,3.61-1.41,3.7-3.36s-1.41-3.61-3.36-3.7-3.61,1.41-3.7,3.36,1.41,3.61,3.36,3.7ZM37.87,116.52c1.95.09,3.61-1.41,3.7-3.36.09-1.95-1.41-3.61-3.36-3.7-1.95-.09-3.61,1.41-3.7,3.36-.09,1.95,1.41,3.61,3.36,3.7ZM181.38,140.63c3.15.15,5.83-2.28,5.99-5.44.15-3.15-2.28-5.83-5.44-5.99s-5.83,2.28-5.99,5.44,2.28,5.83,5.44,5.99ZM41.45,133.93c3.15.15,5.83-2.28,5.99-5.44.15-3.15-2.28-5.83-5.44-5.99s-5.83,2.28-5.99,5.44,2.28,5.83,5.44,5.99ZM166.8,161.54c4.6.22,8.5-3.33,8.72-7.92.22-4.6-3.33-8.5-7.92-8.72s-8.5,3.33-8.72,7.92c-.22,4.6,3.33,8.5,7.92,8.72ZM53.97,156.14c4.6.22,8.5-3.33,8.72-7.92.22-4.6-3.33-8.5-7.92-8.72-4.6-.22-8.5,3.33-8.72,7.92-.22,4.6,3.33,8.5,7.92,8.72ZM141.97,181.13c5.92.28,10.95-4.29,11.23-10.21.28-5.92-4.29-10.95-10.21-11.23-5.92-.28-10.95,4.29-11.23,10.21-.28,5.92,4.29,10.95,10.21,11.23ZM76.81,178.01c5.92.28,10.95-4.29,11.23-10.21.28-5.92-4.29-10.95-10.21-11.23-5.92-.28-10.95,4.29-11.23,10.21s4.29,10.95,10.21,11.23ZM.02,108.88c-.37,7.63,5.53,14.12,13.16,14.48,7.63.37,14.12-5.53,14.48-13.16s-5.53-14.12-13.16-14.48c-7.63-.37-14.12,5.53-14.48,13.16ZM66.67,186.61c-.09,1.95,1.41,3.61,3.36,3.7,1.95.09,3.61-1.41,3.7-3.36.09-1.95-1.41-3.61-3.36-3.7-1.95-.09-3.61,1.41-3.7,3.36ZM73.79,37.87c-.09,1.95,1.41,3.61,3.36,3.7,1.95.09,3.61-1.41,3.7-3.36.09-1.95-1.41-3.61-3.36-3.7-1.95-.09-3.61,1.41-3.7,3.36ZM49.68,181.38c-.15,3.15,2.28,5.83,5.44,5.99,3.15.15,5.83-2.28,5.99-5.44s-2.28-5.83-5.44-5.99c-3.15-.15-5.83,2.28-5.99,5.44ZM56.38,41.45c-.15,3.15,2.28,5.83,5.44,5.99s5.83-2.28,5.99-5.44c.15-3.15-2.28-5.83-5.44-5.99s-5.83,2.28-5.99,5.44ZM28.77,166.8c-.22,4.6,3.33,8.5,7.92,8.72,4.6.22,8.5-3.33,8.72-7.92.22-4.6-3.33-8.5-7.92-8.72-4.6-.22-8.5,3.33-8.72,7.92ZM34.17,53.97c-.22,4.6,3.33,8.5,7.92,8.72,4.6.22,8.5-3.33,8.72-7.92.22-4.6-3.33-8.5-7.92-8.72-4.6-.22-8.5,3.33-8.72,7.92ZM9.18,141.97c-.28,5.92,4.29,10.95,10.21,11.23,5.92.28,10.95-4.29,11.23-10.21.28-5.92-4.29-10.95-10.21-11.23-5.92-.28-10.95,4.29-11.23,10.21ZM12.3,76.81c-.28,5.92,4.29,10.95,10.21,11.23,5.92.28,10.95-4.29,11.23-10.21.28-5.92-4.29-10.95-10.21-11.23-5.92-.28-10.95,4.29-11.23,10.21ZM81.44.02c-7.63-.37-14.12,5.53-14.48,13.16-.37,7.63,5.53,14.12,13.16,14.48,7.63.37,14.12-5.53,14.48-13.16.37-7.63-5.53-14.12-13.16-14.48ZM3.71,66.67c-1.95-.09-3.61,1.41-3.7,3.36s1.41,3.61,3.36,3.7c1.95.09,3.61-1.41,3.7-3.36.09-1.95-1.41-3.61-3.36-3.7ZM152.44,73.79c-1.95-.09-3.61,1.41-3.7,3.36-.09,1.95,1.41,3.61,3.36,3.7,1.95.09,3.61-1.41,3.7-3.36.09-1.95-1.41-3.61-3.36-3.7ZM8.93,49.68c-3.15-.15-5.83,2.28-5.99,5.44-.15,3.15,2.28,5.83,5.44,5.99s5.83-2.28,5.99-5.44c.15-3.15-2.28-5.83-5.44-5.99ZM148.86,56.38c-3.15-.15-5.83,2.28-5.99,5.44-.15,3.15,2.28,5.83,5.44,5.99s5.83-2.28,5.99-5.44-2.28-5.83-5.44-5.99ZM23.52,28.77c-4.6-.22-8.5,3.33-8.72,7.92-.22,4.6,3.33,8.5,7.92,8.72,4.6.22,8.5-3.33,8.72-7.92.22-4.6-3.33-8.5-7.92-8.72ZM136.34,34.17c-4.6-.22-8.5,3.33-8.72,7.92-.22,4.6,3.33,8.5,7.92,8.72,4.6.22,8.5-3.33,8.72-7.92.22-4.6-3.33-8.5-7.92-8.72ZM48.34,9.18c-5.92-.28-10.95,4.29-11.23,10.21s4.29,10.95,10.21,11.23c5.92.28,10.95-4.29,11.23-10.21.28-5.92-4.29-10.95-10.21-11.23ZM113.5,12.3c-5.92-.28-10.95,4.29-11.23,10.21-.28,5.92,4.29,10.95,10.21,11.23,5.92.28,10.95-4.29,11.23-10.21.28-5.92-4.29-10.95-10.21-11.23ZM190.29,81.44c.37-7.63-5.53-14.12-13.16-14.48-7.63-.37-14.12,5.53-14.48,13.16s5.53,14.12,13.16,14.48c7.63.37,14.12-5.53,14.48-13.16ZM123.64,3.71c.09-1.95-1.41-3.61-3.36-3.7-1.95-.09-3.61,1.41-3.7,3.36-.09,1.95,1.41,3.61,3.36,3.7,1.95.09,3.61-1.41,3.7-3.36ZM116.52,152.44c.09-1.95-1.41-3.61-3.36-3.7s-3.61,1.41-3.7,3.36c-.09,1.95,1.41,3.61,3.36,3.7,1.95.09,3.61-1.41,3.7-3.36ZM140.63,8.93c.15-3.15-2.28-5.83-5.44-5.99-3.15-.15-5.83,2.28-5.99,5.44-.15,3.15,2.28,5.83,5.44,5.99,3.15.15,5.83-2.28,5.99-5.44ZM133.93,148.86c.15-3.15-2.28-5.83-5.44-5.99-3.15-.15-5.83,2.28-5.99,5.44-.15,3.15,2.28,5.83,5.44,5.99s5.83-2.28,5.99-5.44ZM161.54,23.52c.22-4.6-3.33-8.5-7.92-8.72-4.6-.22-8.5,3.33-8.72,7.92-.22,4.6,3.33,8.5,7.92,8.72,4.6.22,8.5-3.33,8.72-7.92ZM156.14,136.34c.22-4.6-3.33-8.5-7.92-8.72-4.6-.22-8.5,3.33-8.72,7.92-.22,4.6,3.33,8.5,7.92,8.72,4.6.22,8.5-3.33,8.72-7.92ZM181.13,48.34c.28-5.92-4.29-10.95-10.21-11.23-5.92-.28-10.95,4.29-11.23,10.21s4.29,10.95,10.21,11.23c5.92.28,10.95-4.29,11.23-10.21ZM178.01,113.5c.28-5.92-4.29-10.95-10.21-11.23s-10.95,4.29-11.23,10.21c-.28,5.92,4.29,10.95,10.21,11.23,5.92.28,10.95-4.29,11.23-10.21Z"/>
  <g>
    <path class="st1" d="M547.5,178.58c0-6.32,4.97-11.36,11.66-11.36,3.74,0,6.93,1.51,9.08,3.91l-2.59,2.04c-1.54-1.73-3.84-2.79-6.5-2.79-4.71,0-8.29,3.54-8.29,8.18s3.62,8.16,8.34,8.16c2.46,0,4.97-1.09,6.62-3.07v-5.2h3.38v6.29c-2.21,3.03-5.86,5.14-9.99,5.14-6.69,0-11.71-5.02-11.71-11.32Z"/>
    <path class="st1" d="M595.96,189.49l-10.46-9.66v9.66h-3.38v-21.88h10.26c4.78,0,7.98,2.34,7.98,6.59s-2.93,6.48-7.72,6.48h-1.83l9.99,8.81h-4.84ZM585.5,177.75h7.14c2.52,0,4.26-1.12,4.26-3.55s-1.73-3.54-4.26-3.54h-7.14v7.09Z"/>
    <path class="st1" d="M611.59,178.56c0-6.33,5.02-11.35,11.71-11.35s11.73,5.02,11.73,11.35-5.02,11.35-11.73,11.35-11.71-5.04-11.71-11.35ZM631.65,178.56c0-4.66-3.64-8.2-8.36-8.2s-8.34,3.53-8.34,8.2,3.64,8.17,8.34,8.17,8.36-3.53,8.36-8.17Z"/>
    <path class="st1" d="M647.26,178.98v-11.37h3.4v11.37c0,4.9,2.1,7.63,6.72,7.63s6.72-2.73,6.72-7.61v-11.38h3.44v11.38c0,6.67-3.46,10.75-10.15,10.75s-10.12-4.05-10.12-10.77Z"/>
    <path class="st1" d="M681.01,167.61h9.99c4.78,0,7.95,2.68,7.95,7.05s-2.97,7.02-7.77,7.02h-6.79v7.81h-3.38v-21.88ZM691.03,178.67c2.75,0,4.46-1.47,4.46-4.01s-1.71-4-4.46-4h-6.64v8.01h6.64Z"/>
  </g>
</svg>